<svg xmlns="http://www.w3.org/2000/svg" viewBox="0 0 580.1 294.1" fill="white">
  <rect width="580.1" height="294.1" fill="#0a0a0a"/>
  <path d="M327,66c2.1-5.1,3.1-10.5,3.1-16.3s-1.1-11.3-3.3-16.4c-2.2-5.1-5.2-9.6-9.1-13.5c-3.9-3.9-8.3-6.9-13.4-9.1c-5.1-2.2-10.5-3.3-16.3-3.3s-11.2,1.1-16.3,3.3c-5.1,2.2-9.6,5.2-13.5,9.1c-3.9,3.9-7,8.4-9.2,13.5c-2.2,5.1-3.3,10.6-3.3,16.4s1.1,11.2,3.3,16.3c2.2,5.1,5.3,9.5,9.2,13.4c3.9,3.9,8.4,6.9,13.5,9.1c5.1,2.2,10.5,3.3,16.3,3.3c6,0,11.6-1.1,16.7-3.3c2.4-1,4.7-2.2,6.8-3.7l5.2,6.3h8.9l-8.6-10.7c0.3-0.3,0.7-0.6,1-1C321.9,75.5,324.9,71,327,66z" fill="white"/>
</svg>
